<svg xmlns="http://www.w3.org/2000/svg" viewBox="0 0 128 128" role="img" aria-label="Matachito">
  <defs>
    <linearGradient id="skin" x1="0" x2="0" y1="0" y2="1">
      <stop offset="0%" stop-color="#fff1e8"/>
      <stop offset="100%" stop-color="#ffdcca"/>
    </linearGradient>
    <linearGradient id="band" x1="0" x2="1" y1="0" y2="0">
      <stop offset="0%" stop-color="#0a73c9"/>
      <stop offset="100%" stop-color="#0a5eb0"/>
    </linearGradient>
    <radialGradient id="metal" cx="50%" cy="45%" r="55%">
      <stop offset="0%" stop-color="#ffffff"/>
      <stop offset="55%" stop-color="#d9d9d9"/>
      <stop offset="100%" stop-color="#a6a6a6"/>
    </radialGradient>
  </defs>

  <path d="M64 8c24.5 0 45.2 14.1 54 35.1v21.6C109.6 96.9 89.4 120 64 120S18.4 96.9 10 64.7V43.1C18.8 22.1 39.5 8 64 8Z" fill="url(#skin)" stroke="#111" stroke-width="3.5" stroke-linejoin="round"/>
  <path d="M16 36.5c15.6-4.6 31.8-7 48-7 17.4 0 34.1 2.7 49.2 8.1l-4.9 12.5c-14.2-5-29.1-7.4-44.3-7.4-15 0-30.1 2.5-45.1 7.4Z" fill="url(#band)"/>
  <path d="M18 48.7c14.7 4.8 30 7.2 46 7.2 15 0 29.5-2.4 43.5-7.2l4.7 11c-14.1 5.6-30.3 8.5-48.2 8.5-18.2 0-35-2.9-50.2-8.7Z" fill="#0c6bbf" opacity="0.95"/>

  <circle cx="88" cy="41" r="18" fill="#efefef" stroke="#b8b8b8" stroke-width="2"/>
  <circle cx="88" cy="41" r="10" fill="url(#metal)" stroke="#969696" stroke-width="1.5"/>

  <path d="M33 58c3-5 8.2-8 15.4-8 7.2 0 12.2 2.6 15 7.7" fill="none" stroke="#111" stroke-width="4" stroke-linecap="round"/>
  <path d="M65 58c3-5 8.2-8 15.4-8 7.2 0 12.2 2.6 15 7.7" fill="none" stroke="#111" stroke-width="4" stroke-linecap="round"/>

  <ellipse cx="47" cy="77" rx="12" ry="14" fill="#fff" stroke="#222" stroke-width="1.5"/>
  <ellipse cx="79" cy="77" rx="12" ry="14" fill="#fff" stroke="#222" stroke-width="1.5"/>
  <ellipse cx="49" cy="79" rx="4.2" ry="5.8" fill="#111"/>
  <ellipse cx="81" cy="79" rx="4.2" ry="5.8" fill="#111"/>
  <circle cx="50.4" cy="76.7" r="1.4" fill="#fff"/>
  <circle cx="82.4" cy="76.7" r="1.4" fill="#fff"/>

  <path d="M61 89c1.7-1.8 3.8-2.7 6.3-2.7 2.1 0 3.8 0.6 5.3 1.8" fill="none" stroke="#111" stroke-width="2.2" stroke-linecap="round"/>
  <path d="M46 97c4.7 7 10.9 10.5 18.4 10.5 7.7 0 14.1-3.4 19.2-10.1-3.7-1.7-6.7-2.6-9-2.6H55.4c-3 0-6.1 0.7-9.4 2.2Z" fill="#161616"/>
  <path d="M56.5 103.4c2.7 2.4 5.5 3.6 8.6 3.6 3 0 5.7-1.1 8.1-3.3v-4.6H56.5Z" fill="#de1d17"/>

  <path d="M18.5 62.5c-5 0-9 3.8-9 8.6v6.8c0 4.7 4 8.5 9 8.5h3.7V62.5Z" fill="#111"/>
  <path d="M18 67c4.3 0 7.8 3.3 8.2 7.5l0.1 1.2v10" fill="none" stroke="#111" stroke-width="3" stroke-linecap="round"/>
  <circle cx="30" cy="96.5" r="3.8" fill="#111"/>
  <path d="M29.5 93.7c0 0 3.4-12.2 9.4-18.1" fill="none" stroke="#111" stroke-width="3" stroke-linecap="round"/>

  <ellipse cx="41" cy="96" rx="5" ry="4.2" fill="#f7c9c9" opacity="0.6"/>
  <ellipse cx="89" cy="96" rx="5" ry="4.2" fill="#f7c9c9" opacity="0.6"/>
  <path d="M106 72c2-4.2 5.2-6.4 9.5-6.4" fill="none" stroke="#111" stroke-width="2.4" stroke-linecap="round"/>
  <path d="M110.5 68.2c1.9 2.5 1.9 5.2 0 7.9" fill="none" stroke="#111" stroke-width="2.2" stroke-linecap="round"/>
</svg>